STARTFONT 2.1
FONT -Made with Bits'n'Picas by Kreative Software-Untitled-Regular-R-Regular--14-14-75-75-c-80-iso10646-1
SIZE 14 75 75
FONTBOUNDINGBOX 5 6 0 0
STARTPROPERTIES 9
FAMILY_NAME "Untitled"
WEIGHT_NAME "Regular"
FONT_VERSION "Version 1.0"
FOUNDRY "Made with Bits'n'Picas by Kreative Software"
FONT_ASCENT 14
FONT_DESCENT 0
POINT_SIZE 6
X_HEIGHT 0
CAP_HEIGHT 0
ENDPROPERTIES
CHARS 47
STARTCHAR U+0000
ENCODING 0
SWIDTH 0 0
DWIDTH 0 0
BBX 0 0 0 0
BITMAP
ENDCHAR
STARTCHAR U+0001
ENCODING 1
SWIDTH 0 0
DWIDTH 0 0
BBX 0 0 0 0
BITMAP
ENDCHAR
STARTCHAR U+0002
ENCODING 2
SWIDTH 0 0
DWIDTH 0 0
BBX 0 0 0 0
BITMAP
ENDCHAR
STARTCHAR U+0003
ENCODING 3
SWIDTH 0 0
DWIDTH 0 0
BBX 0 0 0 0
BITMAP
ENDCHAR
STARTCHAR U+0004
ENCODING 4
SWIDTH 0 0
DWIDTH 0 0
BBX 0 0 0 0
BITMAP
ENDCHAR
STARTCHAR U+0005
ENCODING 5
SWIDTH 0 0
DWIDTH 0 0
BBX 0 0 0 0
BITMAP
ENDCHAR
STARTCHAR U+0006
ENCODING 6
SWIDTH 0 0
DWIDTH 0 0
BBX 0 0 0 0
BITMAP
ENDCHAR
STARTCHAR U+0007
ENCODING 7
SWIDTH 0 0
DWIDTH 0 0
BBX 0 0 0 0
BITMAP
ENDCHAR
STARTCHAR U+0008
ENCODING 8
SWIDTH 0 0
DWIDTH 0 0
BBX 0 0 0 0
BITMAP
ENDCHAR
STARTCHAR U+0009
ENCODING 9
SWIDTH 0 0
DWIDTH 0 0
BBX 0 0 0 0
BITMAP
ENDCHAR
STARTCHAR U+000A
ENCODING 10
SWIDTH 0 0
DWIDTH 0 0
BBX 0 0 0 0
BITMAP
ENDCHAR
STARTCHAR U+000B
ENCODING 11
SWIDTH 0 0
DWIDTH 0 0
BBX 0 0 0 0
BITMAP
ENDCHAR
STARTCHAR U+000C
ENCODING 12
SWIDTH 0 0
DWIDTH 0 0
BBX 0 0 0 0
BITMAP
ENDCHAR
STARTCHAR U+000D
ENCODING 13
SWIDTH 0 0
DWIDTH 0 0
BBX 0 0 0 0
BITMAP
ENDCHAR
STARTCHAR U+000E
ENCODING 14
SWIDTH 0 0
DWIDTH 0 0
BBX 0 0 0 0
BITMAP
ENDCHAR
STARTCHAR U+000F
ENCODING 15
SWIDTH 0 0
DWIDTH 0 0
BBX 0 0 0 0
BITMAP
ENDCHAR
STARTCHAR U+0010
ENCODING 16
SWIDTH 0 0
DWIDTH 0 0
BBX 0 0 0 0
BITMAP
ENDCHAR
STARTCHAR U+0011
ENCODING 17
SWIDTH 0 0
DWIDTH 0 0
BBX 0 0 0 0
BITMAP
ENDCHAR
STARTCHAR U+0012
ENCODING 18
SWIDTH 0 0
DWIDTH 0 0
BBX 0 0 0 0
BITMAP
ENDCHAR
STARTCHAR U+0013
ENCODING 19
SWIDTH 0 0
DWIDTH 0 0
BBX 0 0 0 0
BITMAP
ENDCHAR
STARTCHAR U+0014
ENCODING 20
SWIDTH 0 0
DWIDTH 0 0
BBX 0 0 0 0
BITMAP
ENDCHAR
STARTCHAR U+0015
ENCODING 21
SWIDTH 0 0
DWIDTH 0 0
BBX 0 0 0 0
BITMAP
ENDCHAR
STARTCHAR U+0016
ENCODING 22
SWIDTH 0 0
DWIDTH 0 0
BBX 0 0 0 0
BITMAP
ENDCHAR
STARTCHAR U+0017
ENCODING 23
SWIDTH 0 0
DWIDTH 0 0
BBX 0 0 0 0
BITMAP
ENDCHAR
STARTCHAR U+0018
ENCODING 24
SWIDTH 0 0
DWIDTH 0 0
BBX 0 0 0 0
BITMAP
ENDCHAR
STARTCHAR U+0019
ENCODING 25
SWIDTH 0 0
DWIDTH 0 0
BBX 0 0 0 0
BITMAP
ENDCHAR
STARTCHAR U+001A
ENCODING 26
SWIDTH 0 0
DWIDTH 0 0
BBX 0 0 0 0
BITMAP
ENDCHAR
STARTCHAR U+001B
ENCODING 27
SWIDTH 0 0
DWIDTH 0 0
BBX 0 0 0 0
BITMAP
ENDCHAR
STARTCHAR U+001C
ENCODING 28
SWIDTH 0 0
DWIDTH 0 0
BBX 0 0 0 0
BITMAP
ENDCHAR
STARTCHAR U+001D
ENCODING 29
SWIDTH 0 0
DWIDTH 0 0
BBX 0 0 0 0
BITMAP
ENDCHAR
STARTCHAR U+001E
ENCODING 30
SWIDTH 0 0
DWIDTH 0 0
BBX 0 0 0 0
BITMAP
ENDCHAR
STARTCHAR U+001F
ENCODING 31
SWIDTH 0 0
DWIDTH 0 0
BBX 0 0 0 0
BITMAP
ENDCHAR
STARTCHAR U+0020
ENCODING 32
SWIDTH 200 0
DWIDTH 1 0
BBX 0 0 0 0
BITMAP
ENDCHAR
STARTCHAR U+002C
ENCODING 44
SWIDTH 600 0
DWIDTH 3 0
BBX 2 2 0 0
BITMAP
C0
40
ENDCHAR
STARTCHAR U+0030
ENCODING 48
SWIDTH 1200 0
DWIDTH 6 0
BBX 5 6 0 0
BITMAP
70
88
88
88
88
70
ENDCHAR
STARTCHAR U+0031
ENCODING 49
SWIDTH 600 0
DWIDTH 3 0
BBX 2 6 0 0
BITMAP
40
C0
40
40
40
40
ENDCHAR
STARTCHAR U+0032
ENCODING 50
SWIDTH 1200 0
DWIDTH 6 0
BBX 5 6 0 0
BITMAP
70
88
08
70
80
F8
ENDCHAR
STARTCHAR U+0033
ENCODING 51
SWIDTH 1200 0
DWIDTH 6 0
BBX 5 6 0 0
BITMAP
F8
08
30
08
88
70
ENDCHAR
STARTCHAR U+0034
ENCODING 52
SWIDTH 1200 0
DWIDTH 6 0
BBX 5 6 0 0
BITMAP
10
30
50
F8
10
10
ENDCHAR
STARTCHAR U+0035
ENCODING 53
SWIDTH 1200 0
DWIDTH 6 0
BBX 5 6 0 0
BITMAP
F8
80
F0
08
88
70
ENDCHAR
STARTCHAR U+0036
ENCODING 54
SWIDTH 1200 0
DWIDTH 6 0
BBX 5 6 0 0
BITMAP
70
80
F0
88
88
70
ENDCHAR
STARTCHAR U+0037
ENCODING 55
SWIDTH 1200 0
DWIDTH 6 0
BBX 5 6 0 0
BITMAP
F8
08
10
20
20
20
ENDCHAR
STARTCHAR U+0038
ENCODING 56
SWIDTH 1200 0
DWIDTH 6 0
BBX 5 6 0 0
BITMAP
70
88
70
88
88
70
ENDCHAR
STARTCHAR U+0039
ENCODING 57
SWIDTH 1200 0
DWIDTH 6 0
BBX 5 6 0 0
BITMAP
70
88
88
78
08
70
ENDCHAR
STARTCHAR U+004D
ENCODING 77
SWIDTH 1200 0
DWIDTH 6 0
BBX 5 6 0 0
BITMAP
88
D8
A8
88
88
88
ENDCHAR
STARTCHAR U+0055
ENCODING 85
SWIDTH 1200 0
DWIDTH 6 0
BBX 5 6 0 0
BITMAP
88
88
88
88
88
70
ENDCHAR
STARTCHAR U+007F
ENCODING 127
SWIDTH 0 0
DWIDTH 0 0
BBX 0 0 0 0
BITMAP
ENDCHAR
ENDFONT
